<svg xmlns="http://www.w3.org/2000/svg" xmlns:xlink="http://www.w3.org/1999/xlink" width="500" zoomAndPan="magnify" viewBox="0 0 375 374.999991" height="500" preserveAspectRatio="xMidYMid meet" version="1.0"><defs><g/><clipPath id="71187b123e"><path d="M 0 143.273438 L 111.75 143.273438 L 111.75 228.773438 L 0 228.773438 Z M 0 143.273438 " clip-rule="nonzero"/></clipPath></defs><g fill="#d70018" fill-opacity="1"><g transform="translate(127.81028, 181.895041)"><g><path d="M 4.421875 -0.4375 L 4.421875 -0.953125 C 4.421875 -1.242188 4.273438 -1.390625 3.984375 -1.390625 L 3.46875 -1.390625 C 3.175781 -1.390625 3.03125 -1.539062 3.03125 -1.84375 L 3.03125 -2.359375 C 3.03125 -2.648438 2.882812 -2.796875 2.59375 -2.796875 L 2.078125 -2.796875 C 1.773438 -2.796875 1.625 -2.941406 1.625 -3.234375 L 1.625 -18.5625 C 1.625 -18.863281 1.773438 -19.015625 2.078125 -19.015625 L 2.59375 -19.015625 C 2.882812 -19.015625 3.03125 -19.160156 3.03125 -19.453125 L 3.03125 -19.96875 C 3.03125 -20.257812 3.175781 -20.40625 3.46875 -20.40625 L 3.984375 -20.40625 C 4.273438 -20.40625 4.421875 -20.550781 4.421875 -20.84375 L 4.421875 -21.359375 C 4.421875 -21.660156 4.570312 -21.8125 4.875 -21.8125 L 14.796875 -21.8125 C 15.109375 -21.8125 15.265625 -21.65625 15.265625 -21.34375 L 15.265625 -20.875 C 15.265625 -20.5625 15.414062 -20.40625 15.71875 -20.40625 L 16.546875 -20.40625 C 16.847656 -20.40625 17 -20.25 17 -19.9375 L 17 -15.984375 C 17 -15.671875 16.847656 -15.515625 16.546875 -15.515625 L 12.578125 -15.515625 C 12.265625 -15.515625 12.109375 -15.671875 12.109375 -15.984375 L 12.109375 -16.46875 C 12.109375 -16.757812 11.960938 -16.90625 11.671875 -16.90625 L 11.1875 -16.90625 C 10.875 -16.90625 10.71875 -17.0625 10.71875 -17.375 L 10.71875 -19.96875 C 10.71875 -20.257812 10.570312 -20.40625 10.28125 -20.40625 L 9.765625 -20.40625 C 9.460938 -20.40625 9.3125 -20.257812 9.3125 -19.96875 L 9.3125 -19.453125 C 9.3125 -19.160156 9.164062 -19.015625 8.875 -19.015625 L 8.359375 -19.015625 C 8.066406 -19.015625 7.921875 -18.863281 7.921875 -18.5625 L 7.921875 -3.234375 C 7.921875 -2.941406 8.066406 -2.796875 8.359375 -2.796875 L 8.875 -2.796875 C 9.164062 -2.796875 9.3125 -2.648438 9.3125 -2.359375 L 9.3125 -1.84375 C 9.3125 -1.539062 9.460938 -1.390625 9.765625 -1.390625 L 10.28125 -1.390625 C 10.570312 -1.390625 10.71875 -1.539062 10.71875 -1.84375 L 10.71875 -6.296875 C 10.71875 -6.585938 10.570312 -6.734375 10.28125 -6.734375 L 9.765625 -6.734375 C 9.460938 -6.734375 9.3125 -6.878906 9.3125 -7.171875 L 9.3125 -9.765625 C 9.3125 -10.078125 9.46875 -10.234375 9.78125 -10.234375 L 16.546875 -10.234375 C 16.847656 -10.234375 17 -10.078125 17 -9.765625 L 17 -0.4375 C 17 -0.144531 16.851562 0 16.5625 0 L 14.03125 0 C 13.726562 0 13.578125 -0.144531 13.578125 -0.4375 L 13.578125 -0.9375 C 13.578125 -1.238281 13.421875 -1.390625 13.109375 -1.390625 L 12.65625 -1.390625 C 12.34375 -1.390625 12.1875 -1.238281 12.1875 -0.9375 L 12.1875 -0.46875 C 12.1875 -0.15625 12.03125 0 11.71875 0 L 4.875 0 C 4.570312 0 4.421875 -0.144531 4.421875 -0.4375 Z M 4.421875 -0.4375 "/></g></g></g><g fill="#d70018" fill-opacity="1"><g transform="translate(152.604479, 181.895041)"><g><path d="M 1.625 -0.4375 L 1.625 -21.359375 C 1.625 -21.660156 1.773438 -21.8125 2.078125 -21.8125 L 7.484375 -21.8125 C 7.773438 -21.8125 7.921875 -21.660156 7.921875 -21.359375 L 7.921875 -0.4375 C 7.921875 -0.144531 7.773438 0 7.484375 0 L 2.078125 0 C 1.773438 0 1.625 -0.144531 1.625 -0.4375 Z M 1.625 -0.4375 "/></g></g></g><g fill="#d70018" fill-opacity="1"><g transform="translate(168.311623, 181.895041)"><g><path d="M 1.171875 -0.4375 L 1.171875 -10.046875 C 1.171875 -10.335938 1.316406 -10.484375 1.609375 -10.484375 L 2.125 -10.484375 C 2.414062 -10.484375 2.5625 -10.628906 2.5625 -10.921875 L 2.5625 -11.4375 C 2.5625 -11.726562 2.707031 -11.875 3 -11.875 L 7.71875 -11.875 C 8.007812 -11.875 8.15625 -12.023438 8.15625 -12.328125 L 8.15625 -12.84375 C 8.15625 -13.132812 8.300781 -13.28125 8.59375 -13.28125 L 9.8125 -13.28125 C 10.101562 -13.28125 10.25 -13.425781 10.25 -13.71875 L 10.25 -18.5625 C 10.25 -18.863281 10.101562 -19.015625 9.8125 -19.015625 L 9.296875 -19.015625 C 9.003906 -19.015625 8.859375 -19.160156 8.859375 -19.453125 L 8.859375 -19.96875 C 8.859375 -20.257812 8.707031 -20.40625 8.40625 -20.40625 L 7.890625 -20.40625 C 7.597656 -20.40625 7.453125 -20.257812 7.453125 -19.96875 L 7.453125 -17.359375 C 7.453125 -17.054688 7.304688 -16.90625 7.015625 -16.90625 L 6.5 -16.90625 C 6.207031 -16.90625 6.0625 -16.757812 6.0625 -16.46875 L 6.0625 -15.953125 C 6.0625 -15.660156 5.910156 -15.515625 5.609375 -15.515625 L 1.609375 -15.515625 C 1.316406 -15.515625 1.171875 -15.660156 1.171875 -15.953125 L 1.171875 -21.359375 C 1.171875 -21.660156 1.316406 -21.8125 1.609375 -21.8125 L 15.40625 -21.8125 C 15.695312 -21.8125 15.84375 -21.660156 15.84375 -21.359375 L 15.84375 -13.71875 C 15.84375 -13.425781 15.695312 -13.28125 15.40625 -13.28125 L 14.890625 -13.28125 C 14.585938 -13.28125 14.4375 -13.132812 14.4375 -12.84375 L 14.4375 -12.328125 C 14.4375 -12.023438 14.289062 -11.875 14 -11.875 L 13.484375 -11.875 C 13.191406 -11.875 13.046875 -11.726562 13.046875 -11.4375 L 13.046875 -10.921875 C 13.046875 -10.628906 12.898438 -10.484375 12.609375 -10.484375 L 7.21875 -10.484375 C 6.925781 -10.484375 6.78125 -10.335938 6.78125 -10.046875 L 6.78125 -3.234375 C 6.78125 -2.941406 6.925781 -2.796875 7.21875 -2.796875 L 7.71875 -2.796875 C 8.007812 -2.796875 8.15625 -2.648438 8.15625 -2.359375 L 8.15625 -1.84375 C 8.15625 -1.539062 8.300781 -1.390625 8.59375 -1.390625 L 9.109375 -1.390625 C 9.398438 -1.390625 9.546875 -1.539062 9.546875 -1.84375 L 9.546875 -5.84375 C 9.546875 -6.144531 9.695312 -6.296875 10 -6.296875 L 15.40625 -6.296875 C 15.695312 -6.296875 15.84375 -6.144531 15.84375 -5.84375 L 15.84375 -0.4375 C 15.84375 -0.144531 15.695312 0 15.40625 0 L 1.609375 0 C 1.316406 0 1.171875 -0.144531 1.171875 -0.4375 Z M 1.171875 -0.4375 "/></g></g></g><g fill="#d70018" fill-opacity="1"><g transform="translate(191.474803, 181.895041)"><g><path d="M 1.625 -0.4375 L 1.625 -21.359375 C 1.625 -21.660156 1.773438 -21.8125 2.078125 -21.8125 L 3.28125 -21.8125 C 3.582031 -21.8125 3.734375 -21.660156 3.734375 -21.359375 L 3.734375 -20.84375 C 3.734375 -20.550781 3.878906 -20.40625 4.171875 -20.40625 L 4.6875 -20.40625 C 4.976562 -20.40625 5.125 -20.257812 5.125 -19.96875 L 5.125 -19.453125 C 5.125 -19.160156 5.269531 -19.015625 5.5625 -19.015625 L 6.078125 -19.015625 C 6.367188 -19.015625 6.515625 -18.863281 6.515625 -18.5625 L 6.515625 -18.0625 C 6.515625 -17.757812 6.664062 -17.609375 6.96875 -17.609375 L 7.484375 -17.609375 C 7.773438 -17.609375 7.921875 -17.460938 7.921875 -17.171875 L 7.921875 -16.65625 C 7.921875 -16.363281 8.066406 -16.21875 8.359375 -16.21875 L 8.875 -16.21875 C 9.164062 -16.21875 9.3125 -16.066406 9.3125 -15.765625 L 9.3125 -15.265625 C 9.3125 -14.960938 9.460938 -14.8125 9.765625 -14.8125 L 10.28125 -14.8125 C 10.570312 -14.8125 10.71875 -14.664062 10.71875 -14.375 L 10.71875 -13.859375 C 10.71875 -13.566406 10.863281 -13.421875 11.15625 -13.421875 L 11.671875 -13.421875 C 11.960938 -13.421875 12.109375 -13.566406 12.109375 -13.859375 L 12.109375 -14.375 C 12.109375 -14.664062 12.257812 -14.8125 12.5625 -14.8125 L 13.0625 -14.8125 C 13.363281 -14.8125 13.515625 -14.960938 13.515625 -15.265625 L 13.515625 -15.765625 C 13.515625 -16.066406 13.660156 -16.21875 13.953125 -16.21875 L 14.46875 -16.21875 C 14.757812 -16.21875 14.90625 -16.363281 14.90625 -16.65625 L 14.90625 -17.171875 C 14.90625 -17.460938 15.054688 -17.609375 15.359375 -17.609375 L 15.859375 -17.609375 C 16.160156 -17.609375 16.3125 -17.757812 16.3125 -18.0625 L 16.3125 -18.5625 C 16.3125 -18.863281 16.457031 -19.015625 16.75 -19.015625 L 17.265625 -19.015625 C 17.554688 -19.015625 17.703125 -19.160156 17.703125 -19.453125 L 17.703125 -19.96875 C 17.703125 -20.257812 17.847656 -20.40625 18.140625 -20.40625 L 18.6875 -20.40625 C 18.976562 -20.40625 19.125 -20.550781 19.125 -20.84375 L 19.125 -21.359375 C 19.125 -21.660156 19.269531 -21.8125 19.5625 -21.8125 L 20.75 -21.8125 C 21.050781 -21.8125 21.203125 -21.660156 21.203125 -21.359375 L 21.203125 -0.4375 C 21.203125 -0.144531 21.050781 0 20.75 0 L 15.359375 0 C 15.054688 0 14.90625 -0.144531 14.90625 -0.4375 L 14.90625 -12.96875 C 14.90625 -13.269531 14.757812 -13.421875 14.46875 -13.421875 L 13.953125 -13.421875 C 13.660156 -13.421875 13.515625 -13.269531 13.515625 -12.96875 L 13.515625 -12.46875 C 13.515625 -12.164062 13.363281 -12.015625 13.0625 -12.015625 L 12.5625 -12.015625 C 12.257812 -12.015625 12.109375 -11.867188 12.109375 -11.578125 L 12.109375 -11.0625 C 12.109375 -10.769531 11.960938 -10.625 11.671875 -10.625 L 11.15625 -10.625 C 10.863281 -10.625 10.71875 -10.769531 10.71875 -11.0625 L 10.71875 -11.578125 C 10.71875 -11.867188 10.570312 -12.015625 10.28125 -12.015625 L 9.765625 -12.015625 C 9.460938 -12.015625 9.3125 -12.164062 9.3125 -12.46875 L 9.3125 -12.96875 C 9.3125 -13.269531 9.164062 -13.421875 8.875 -13.421875 L 8.359375 -13.421875 C 8.066406 -13.421875 7.921875 -13.269531 7.921875 -12.96875 L 7.921875 -0.4375 C 7.921875 -0.144531 7.773438 0 7.484375 0 L 2.078125 0 C 1.773438 0 1.625 -0.144531 1.625 -0.4375 Z M 1.625 -0.4375 "/></g></g></g><g fill="#d70018" fill-opacity="1"><g transform="translate(220.463015, 181.895041)"><g><path d="M 4.421875 -0.4375 L 4.421875 -0.953125 C 4.421875 -1.242188 4.273438 -1.390625 3.984375 -1.390625 L 3.46875 -1.390625 C 3.175781 -1.390625 3.03125 -1.539062 3.03125 -1.84375 L 3.03125 -2.359375 C 3.03125 -2.648438 2.882812 -2.796875 2.59375 -2.796875 L 2.078125 -2.796875 C 1.773438 -2.796875 1.625 -2.941406 1.625 -3.234375 L 1.625 -18.5625 C 1.625 -18.863281 1.773438 -19.015625 2.078125 -19.015625 L 2.59375 -19.015625 C 2.882812 -19.015625 3.03125 -19.160156 3.03125 -19.453125 L 3.03125 -19.96875 C 3.03125 -20.257812 3.175781 -20.40625 3.46875 -20.40625 L 3.984375 -20.40625 C 4.273438 -20.40625 4.421875 -20.550781 4.421875 -20.84375 L 4.421875 -21.359375 C 4.421875 -21.660156 4.570312 -21.8125 4.875 -21.8125 L 13.765625 -21.8125 C 14.066406 -21.8125 14.21875 -21.660156 14.21875 -21.359375 L 14.21875 -20.84375 C 14.21875 -20.550781 14.363281 -20.40625 14.65625 -20.40625 L 15.171875 -20.40625 C 15.460938 -20.40625 15.609375 -20.257812 15.609375 -19.96875 L 15.609375 -19.453125 C 15.609375 -19.160156 15.753906 -19.015625 16.046875 -19.015625 L 16.5625 -19.015625 C 16.851562 -19.015625 17 -18.863281 17 -18.5625 L 17 -3.234375 C 17 -2.941406 16.851562 -2.796875 16.5625 -2.796875 L 16.046875 -2.796875 C 15.753906 -2.796875 15.609375 -2.648438 15.609375 -2.359375 L 15.609375 -1.84375 C 15.609375 -1.539062 15.460938 -1.390625 15.171875 -1.390625 L 14.65625 -1.390625 C 14.363281 -1.390625 14.21875 -1.242188 14.21875 -0.953125 L 14.21875 -0.4375 C 14.21875 -0.144531 14.066406 0 13.765625 0 L 4.875 0 C 4.570312 0 4.421875 -0.144531 4.421875 -0.4375 Z M 7.921875 -19.96875 L 7.921875 -1.84375 C 7.921875 -1.539062 8.066406 -1.390625 8.359375 -1.390625 L 8.875 -1.390625 C 9.164062 -1.390625 9.3125 -1.539062 9.3125 -1.84375 L 9.3125 -2.359375 C 9.3125 -2.648438 9.460938 -2.796875 9.765625 -2.796875 L 10.28125 -2.796875 C 10.570312 -2.796875 10.71875 -2.941406 10.71875 -3.234375 L 10.71875 -18.5625 C 10.71875 -18.863281 10.570312 -19.015625 10.28125 -19.015625 L 9.765625 -19.015625 C 9.460938 -19.015625 9.3125 -19.160156 9.3125 -19.453125 L 9.3125 -19.96875 C 9.3125 -20.257812 9.164062 -20.40625 8.875 -20.40625 L 8.359375 -20.40625 C 8.066406 -20.40625 7.921875 -20.257812 7.921875 -19.96875 Z M 7.921875 -19.96875 "/></g></g></g><g fill="#d70018" fill-opacity="1"><g transform="translate(245.257214, 181.895041)"><g/></g></g><g fill="#d70018" fill-opacity="1"><g transform="translate(257.236347, 181.895041)"><g><path d="M 2.453125 -0.4375 L 2.453125 -0.953125 C 2.453125 -1.242188 2.300781 -1.390625 2 -1.390625 L 1.484375 -1.390625 C 1.191406 -1.390625 1.046875 -1.539062 1.046875 -1.84375 L 1.046875 -5.84375 C 1.046875 -6.144531 1.191406 -6.296875 1.484375 -6.296875 L 6.890625 -6.296875 C 7.191406 -6.296875 7.34375 -6.144531 7.34375 -5.84375 L 7.34375 -1.84375 C 7.34375 -1.539062 7.488281 -1.390625 7.78125 -1.390625 L 8.296875 -1.390625 C 8.585938 -1.390625 8.734375 -1.539062 8.734375 -1.84375 L 8.734375 -2.359375 C 8.734375 -2.648438 8.878906 -2.796875 9.171875 -2.796875 L 9.953125 -2.796875 C 10.242188 -2.796875 10.390625 -2.941406 10.390625 -3.234375 L 10.390625 -8.78125 C 10.390625 -9.070312 10.242188 -9.21875 9.953125 -9.21875 L 9.4375 -9.21875 C 9.144531 -9.21875 9 -9.367188 9 -9.671875 L 9 -10.1875 C 9 -10.476562 8.847656 -10.625 8.546875 -10.625 L 4.546875 -10.625 C 4.242188 -10.625 4.09375 -10.769531 4.09375 -11.0625 L 4.09375 -11.578125 C 4.09375 -11.867188 3.945312 -12.015625 3.65625 -12.015625 L 3.140625 -12.015625 C 2.847656 -12.015625 2.703125 -12.164062 2.703125 -12.46875 L 2.703125 -12.953125 C 2.703125 -13.265625 2.546875 -13.421875 2.234375 -13.421875 L 1.765625 -13.421875 C 1.453125 -13.421875 1.296875 -13.578125 1.296875 -13.890625 L 1.296875 -18.546875 C 1.296875 -18.859375 1.453125 -19.015625 1.765625 -19.015625 L 2.234375 -19.015625 C 2.546875 -19.015625 2.703125 -19.164062 2.703125 -19.46875 L 2.703125 -19.96875 C 2.703125 -20.257812 2.847656 -20.40625 3.140625 -20.40625 L 3.65625 -20.40625 C 3.945312 -20.40625 4.09375 -20.550781 4.09375 -20.84375 L 4.09375 -21.359375 C 4.09375 -21.660156 4.242188 -21.8125 4.546875 -21.8125 L 13.203125 -21.8125 C 13.503906 -21.8125 13.65625 -21.660156 13.65625 -21.359375 L 13.65625 -20.84375 C 13.65625 -20.550781 13.800781 -20.40625 14.09375 -20.40625 L 15.765625 -20.40625 C 16.066406 -20.40625 16.21875 -20.257812 16.21875 -19.96875 L 16.21875 -15.953125 C 16.21875 -15.660156 16.066406 -15.515625 15.765625 -15.515625 L 12.234375 -15.515625 C 11.929688 -15.515625 11.78125 -15.660156 11.78125 -15.953125 L 11.78125 -16.46875 C 11.78125 -16.757812 11.632812 -16.90625 11.34375 -16.90625 L 10.828125 -16.90625 C 10.535156 -16.90625 10.390625 -17.054688 10.390625 -17.359375 L 10.390625 -19.96875 C 10.390625 -20.257812 10.242188 -20.40625 9.953125 -20.40625 L 9.4375 -20.40625 C 9.144531 -20.40625 9 -20.257812 9 -19.96875 L 9 -19.453125 C 9 -19.160156 8.847656 -19.015625 8.546875 -19.015625 L 8.03125 -19.015625 C 7.738281 -19.015625 7.59375 -18.863281 7.59375 -18.5625 L 7.59375 -13.859375 C 7.59375 -13.566406 7.738281 -13.421875 8.03125 -13.421875 L 8.78125 -13.421875 C 9.070312 -13.421875 9.21875 -13.269531 9.21875 -12.96875 L 9.21875 -12.46875 C 9.21875 -12.164062 9.367188 -12.015625 9.671875 -12.015625 L 13.4375 -12.015625 C 13.738281 -12.015625 13.890625 -11.867188 13.890625 -11.578125 L 13.890625 -11.0625 C 13.890625 -10.769531 14.035156 -10.625 14.328125 -10.625 L 14.84375 -10.625 C 15.132812 -10.625 15.28125 -10.476562 15.28125 -10.1875 L 15.28125 -9.6875 C 15.28125 -9.375 15.4375 -9.21875 15.75 -9.21875 L 16.21875 -9.21875 C 16.53125 -9.21875 16.6875 -9.066406 16.6875 -8.765625 L 16.6875 -3.265625 C 16.6875 -2.953125 16.53125 -2.796875 16.21875 -2.796875 L 15.75 -2.796875 C 15.4375 -2.796875 15.28125 -2.640625 15.28125 -2.328125 L 15.28125 -1.84375 C 15.28125 -1.539062 15.132812 -1.390625 14.84375 -1.390625 L 14.328125 -1.390625 C 14.035156 -1.390625 13.890625 -1.242188 13.890625 -0.953125 L 13.890625 -0.4375 C 13.890625 -0.144531 13.75 0 13.46875 0 L 2.859375 0 C 2.585938 0 2.453125 -0.144531 2.453125 -0.4375 Z M 2.453125 -0.4375 "/></g></g></g><g fill="#d70018" fill-opacity="1"><g transform="translate(281.354833, 181.895041)"><g><path d="M 1.625 -0.4375 L 1.625 -21.359375 C 1.625 -21.660156 1.773438 -21.8125 2.078125 -21.8125 L 7.484375 -21.8125 C 7.773438 -21.8125 7.921875 -21.660156 7.921875 -21.359375 L 7.921875 -11.96875 C 7.921875 -11.675781 8.066406 -11.53125 8.359375 -11.53125 L 8.90625 -11.53125 C 9.195312 -11.53125 9.34375 -11.675781 9.34375 -11.96875 L 9.34375 -12.484375 C 9.34375 -12.785156 9.488281 -12.9375 9.78125 -12.9375 L 10.28125 -12.9375 C 10.570312 -12.9375 10.71875 -13.082031 10.71875 -13.375 L 10.71875 -21.359375 C 10.71875 -21.660156 10.863281 -21.8125 11.15625 -21.8125 L 16.5625 -21.8125 C 16.851562 -21.8125 17 -21.660156 17 -21.359375 L 17 -0.4375 C 17 -0.144531 16.851562 0 16.5625 0 L 11.15625 0 C 10.863281 0 10.71875 -0.144531 10.71875 -0.4375 L 10.71875 -9.828125 C 10.71875 -10.128906 10.570312 -10.28125 10.28125 -10.28125 L 9.78125 -10.28125 C 9.488281 -10.28125 9.34375 -10.128906 9.34375 -9.828125 L 9.34375 -9.3125 C 9.34375 -9.019531 9.195312 -8.875 8.90625 -8.875 L 8.359375 -8.875 C 8.066406 -8.875 7.921875 -8.726562 7.921875 -8.4375 L 7.921875 -0.4375 C 7.921875 -0.144531 7.773438 0 7.484375 0 L 2.078125 0 C 1.773438 0 1.625 -0.144531 1.625 -0.4375 Z M 1.625 -0.4375 "/></g></g></g><g fill="#d70018" fill-opacity="1"><g transform="translate(306.149024, 181.895041)"><g><path d="M 4.421875 -0.4375 L 4.421875 -0.953125 C 4.421875 -1.242188 4.273438 -1.390625 3.984375 -1.390625 L 3.46875 -1.390625 C 3.175781 -1.390625 3.03125 -1.539062 3.03125 -1.84375 L 3.03125 -2.359375 C 3.03125 -2.648438 2.882812 -2.796875 2.59375 -2.796875 L 2.078125 -2.796875 C 1.773438 -2.796875 1.625 -2.941406 1.625 -3.234375 L 1.625 -18.5625 C 1.625 -18.863281 1.773438 -19.015625 2.078125 -19.015625 L 2.59375 -19.015625 C 2.882812 -19.015625 3.03125 -19.160156 3.03125 -19.453125 L 3.03125 -19.96875 C 3.03125 -20.257812 3.175781 -20.40625 3.46875 -20.40625 L 3.984375 -20.40625 C 4.273438 -20.40625 4.421875 -20.550781 4.421875 -20.84375 L 4.421875 -21.359375 C 4.421875 -21.660156 4.570312 -21.8125 4.875 -21.8125 L 13.765625 -21.8125 C 14.066406 -21.8125 14.21875 -21.660156 14.21875 -21.359375 L 14.21875 -20.84375 C 14.21875 -20.550781 14.363281 -20.40625 14.65625 -20.40625 L 15.171875 -20.40625 C 15.460938 -20.40625 15.609375 -20.257812 15.609375 -19.96875 L 15.609375 -19.453125 C 15.609375 -19.160156 15.753906 -19.015625 16.046875 -19.015625 L 16.5625 -19.015625 C 16.851562 -19.015625 17 -18.863281 17 -18.5625 L 17 -3.234375 C 17 -2.941406 16.851562 -2.796875 16.5625 -2.796875 L 16.046875 -2.796875 C 15.753906 -2.796875 15.609375 -2.648438 15.609375 -2.359375 L 15.609375 -1.84375 C 15.609375 -1.539062 15.460938 -1.390625 15.171875 -1.390625 L 14.65625 -1.390625 C 14.363281 -1.390625 14.21875 -1.242188 14.21875 -0.953125 L 14.21875 -0.4375 C 14.21875 -0.144531 14.066406 0 13.765625 0 L 4.875 0 C 4.570312 0 4.421875 -0.144531 4.421875 -0.4375 Z M 7.921875 -19.96875 L 7.921875 -1.84375 C 7.921875 -1.539062 8.066406 -1.390625 8.359375 -1.390625 L 8.875 -1.390625 C 9.164062 -1.390625 9.3125 -1.539062 9.3125 -1.84375 L 9.3125 -2.359375 C 9.3125 -2.648438 9.460938 -2.796875 9.765625 -2.796875 L 10.28125 -2.796875 C 10.570312 -2.796875 10.71875 -2.941406 10.71875 -3.234375 L 10.71875 -18.5625 C 10.71875 -18.863281 10.570312 -19.015625 10.28125 -19.015625 L 9.765625 -19.015625 C 9.460938 -19.015625 9.3125 -19.160156 9.3125 -19.453125 L 9.3125 -19.96875 C 9.3125 -20.257812 9.164062 -20.40625 8.875 -20.40625 L 8.359375 -20.40625 C 8.066406 -20.40625 7.921875 -20.257812 7.921875 -19.96875 Z M 7.921875 -19.96875 "/></g></g></g><g fill="#d70018" fill-opacity="1"><g transform="translate(330.943215, 181.895041)"><g><path d="M 1.625 -0.4375 L 1.625 -21.359375 C 1.625 -21.660156 1.773438 -21.8125 2.078125 -21.8125 L 13.765625 -21.8125 C 14.066406 -21.8125 14.21875 -21.660156 14.21875 -21.359375 L 14.21875 -20.84375 C 14.21875 -20.550781 14.363281 -20.40625 14.65625 -20.40625 L 15.171875 -20.40625 C 15.460938 -20.40625 15.609375 -20.257812 15.609375 -19.96875 L 15.609375 -19.453125 C 15.609375 -19.160156 15.753906 -19.015625 16.046875 -19.015625 L 16.5625 -19.015625 C 16.851562 -19.015625 17 -18.863281 17 -18.5625 L 17 -11.953125 C 17 -11.660156 16.851562 -11.515625 16.5625 -11.515625 L 16.046875 -11.515625 C 15.753906 -11.515625 15.609375 -11.363281 15.609375 -11.0625 L 15.609375 -10.546875 C 15.609375 -10.253906 15.460938 -10.109375 15.171875 -10.109375 L 11.15625 -10.109375 C 10.863281 -10.109375 10.71875 -9.960938 10.71875 -9.671875 L 10.71875 -9.15625 C 10.71875 -8.863281 10.570312 -8.71875 10.28125 -8.71875 L 8.359375 -8.71875 C 8.066406 -8.71875 7.921875 -8.566406 7.921875 -8.265625 L 7.921875 -0.4375 C 7.921875 -0.144531 7.773438 0 7.484375 0 L 2.078125 0 C 1.773438 0 1.625 -0.144531 1.625 -0.4375 Z M 7.921875 -19.96875 L 7.921875 -10.546875 C 7.921875 -10.253906 8.066406 -10.109375 8.359375 -10.109375 L 8.875 -10.109375 C 9.164062 -10.109375 9.3125 -10.253906 9.3125 -10.546875 L 9.3125 -11.0625 C 9.3125 -11.363281 9.460938 -11.515625 9.765625 -11.515625 L 10.28125 -11.515625 C 10.570312 -11.515625 10.71875 -11.660156 10.71875 -11.953125 L 10.71875 -18.5625 C 10.71875 -18.863281 10.570312 -19.015625 10.28125 -19.015625 L 9.765625 -19.015625 C 9.460938 -19.015625 9.3125 -19.160156 9.3125 -19.453125 L 9.3125 -19.96875 C 9.3125 -20.257812 9.164062 -20.40625 8.875 -20.40625 L 8.359375 -20.40625 C 8.066406 -20.40625 7.921875 -20.257812 7.921875 -19.96875 Z M 7.921875 -19.96875 "/></g></g></g><g fill="#d70018" fill-opacity="1"><g transform="translate(127.81028, 213.853422)"><g><path d="M 0.9375 -0.25 L 0.9375 -12.1875 C 0.9375 -12.363281 1.019531 -12.453125 1.1875 -12.453125 L 8.65625 -12.453125 C 8.820312 -12.453125 8.90625 -12.363281 8.90625 -12.1875 L 8.90625 -9.109375 C 8.90625 -8.941406 8.820312 -8.859375 8.65625 -8.859375 L 6.375 -8.859375 C 6.195312 -8.859375 6.109375 -8.941406 6.109375 -9.109375 L 6.109375 -9.40625 C 6.109375 -9.570312 6.023438 -9.65625 5.859375 -9.65625 L 5.578125 -9.65625 C 5.398438 -9.65625 5.3125 -9.738281 5.3125 -9.90625 L 5.3125 -11.390625 C 5.3125 -11.554688 5.226562 -11.640625 5.0625 -11.640625 L 4.78125 -11.640625 C 4.601562 -11.640625 4.515625 -11.554688 4.515625 -11.390625 L 4.515625 -7.265625 C 4.515625 -7.097656 4.601562 -7.015625 4.78125 -7.015625 L 7.359375 -7.015625 C 7.523438 -7.015625 7.609375 -6.929688 7.609375 -6.765625 L 7.609375 -5.671875 C 7.609375 -5.503906 7.523438 -5.421875 7.359375 -5.421875 L 4.78125 -5.421875 C 4.601562 -5.421875 4.515625 -5.335938 4.515625 -5.171875 L 4.515625 -1.046875 C 4.515625 -0.878906 4.601562 -0.796875 4.78125 -0.796875 L 5.0625 -0.796875 C 5.226562 -0.796875 5.3125 -0.878906 5.3125 -1.046875 L 5.3125 -2.546875 C 5.3125 -2.710938 5.398438 -2.796875 5.578125 -2.796875 L 5.859375 -2.796875 C 6.023438 -2.796875 6.109375 -2.878906 6.109375 -3.046875 L 6.109375 -3.34375 C 6.109375 -3.507812 6.195312 -3.59375 6.375 -3.59375 L 8.65625 -3.59375 C 8.820312 -3.59375 8.90625 -3.507812 8.90625 -3.34375 L 8.90625 -0.25 C 8.90625 -0.0820312 8.820312 0 8.65625 0 L 1.1875 0 C 1.019531 0 0.9375 -0.0820312 0.9375 -0.25 Z M 0.9375 -0.25 "/></g></g></g><g fill="#d70018" fill-opacity="1"><g transform="translate(148.020317, 213.853422)"><g><path d="M 1.390625 -0.25 L 1.390625 -0.546875 C 1.390625 -0.710938 1.304688 -0.796875 1.140625 -0.796875 L 0.84375 -0.796875 C 0.675781 -0.796875 0.59375 -0.878906 0.59375 -1.046875 L 0.59375 -3.34375 C 0.59375 -3.507812 0.675781 -3.59375 0.84375 -3.59375 L 3.9375 -3.59375 C 4.101562 -3.59375 4.1875 -3.507812 4.1875 -3.34375 L 4.1875 -1.046875 C 4.1875 -0.878906 4.269531 -0.796875 4.4375 -0.796875 L 4.734375 -0.796875 C 4.898438 -0.796875 4.984375 -0.878906 4.984375 -1.046875 L 4.984375 -1.34375 C 4.984375 -1.507812 5.066406 -1.59375 5.234375 -1.59375 L 5.671875 -1.59375 C 5.847656 -1.59375 5.9375 -1.675781 5.9375 -1.84375 L 5.9375 -5.015625 C 5.9375 -5.179688 5.847656 -5.265625 5.671875 -5.265625 L 5.390625 -5.265625 C 5.210938 -5.265625 5.125 -5.347656 5.125 -5.515625 L 5.125 -5.8125 C 5.125 -5.976562 5.039062 -6.0625 4.875 -6.0625 L 2.59375 -6.0625 C 2.425781 -6.0625 2.34375 -6.144531 2.34375 -6.3125 L 2.34375 -6.609375 C 2.34375 -6.773438 2.257812 -6.859375 2.09375 -6.859375 L 1.796875 -6.859375 C 1.628906 -6.859375 1.546875 -6.941406 1.546875 -7.109375 L 1.546875 -7.390625 C 1.546875 -7.566406 1.457031 -7.65625 1.28125 -7.65625 L 1.015625 -7.65625 C 0.835938 -7.65625 0.75 -7.742188 0.75 -7.921875 L 0.75 -10.578125 C 0.75 -10.753906 0.835938 -10.84375 1.015625 -10.84375 L 1.28125 -10.84375 C 1.457031 -10.84375 1.546875 -10.929688 1.546875 -11.109375 L 1.546875 -11.390625 C 1.546875 -11.554688 1.628906 -11.640625 1.796875 -11.640625 L 2.09375 -11.640625 C 2.257812 -11.640625 2.34375 -11.726562 2.34375 -11.90625 L 2.34375 -12.1875 C 2.34375 -12.363281 2.425781 -12.453125 2.59375 -12.453125 L 7.546875 -12.453125 C 7.710938 -12.453125 7.796875 -12.363281 7.796875 -12.1875 L 7.796875 -11.90625 C 7.796875 -11.726562 7.878906 -11.640625 8.046875 -11.640625 L 9 -11.640625 C 9.164062 -11.640625 9.25 -11.554688 9.25 -11.390625 L 9.25 -9.109375 C 9.25 -8.941406 9.164062 -8.859375 9 -8.859375 L 6.984375 -8.859375 C 6.816406 -8.859375 6.734375 -8.941406 6.734375 -9.109375 L 6.734375 -9.40625 C 6.734375 -9.570312 6.644531 -9.65625 6.46875 -9.65625 L 6.1875 -9.65625 C 6.019531 -9.65625 5.9375 -9.738281 5.9375 -9.90625 L 5.9375 -11.390625 C 5.9375 -11.554688 5.847656 -11.640625 5.671875 -11.640625 L 5.390625 -11.640625 C 5.210938 -11.640625 5.125 -11.554688 5.125 -11.390625 L 5.125 -11.109375 C 5.125 -10.929688 5.039062 -10.84375 4.875 -10.84375 L 4.59375 -10.84375 C 4.414062 -10.84375 4.328125 -10.757812 4.328125 -10.59375 L 4.328125 -7.90625 C 4.328125 -7.738281 4.414062 -7.65625 4.59375 -7.65625 L 5.015625 -7.65625 C 5.179688 -7.65625 5.265625 -7.570312 5.265625 -7.40625 L 5.265625 -7.109375 C 5.265625 -6.941406 5.347656 -6.859375 5.515625 -6.859375 L 7.671875 -6.859375 C 7.835938 -6.859375 7.921875 -6.773438 7.921875 -6.609375 L 7.921875 -6.3125 C 7.921875 -6.144531 8.003906 -6.0625 8.171875 -6.0625 L 8.46875 -6.0625 C 8.632812 -6.0625 8.71875 -5.976562 8.71875 -5.8125 L 8.71875 -5.53125 C 8.71875 -5.351562 8.804688 -5.265625 8.984375 -5.265625 L 9.25 -5.265625 C 9.425781 -5.265625 9.515625 -5.175781 9.515625 -5 L 9.515625 -1.859375 C 9.515625 -1.679688 9.425781 -1.59375 9.25 -1.59375 L 8.984375 -1.59375 C 8.804688 -1.59375 8.71875 -1.503906 8.71875 -1.328125 L 8.71875 -1.046875 C 8.71875 -0.878906 8.632812 -0.796875 8.46875 -0.796875 L 8.171875 -0.796875 C 8.003906 -0.796875 7.921875 -0.710938 7.921875 -0.546875 L 7.921875 -0.25 C 7.921875 -0.0820312 7.84375 0 7.6875 0 L 1.640625 0 C 1.472656 0 1.390625 -0.0820312 1.390625 -0.25 Z M 1.390625 -0.25 "/></g></g></g><g fill="#d70018" fill-opacity="1"><g transform="translate(168.908391, 213.853422)"><g><path d="M 3.609375 -0.25 L 3.609375 -11.40625 C 3.609375 -11.570312 3.519531 -11.65625 3.34375 -11.65625 L 3.046875 -11.65625 C 2.878906 -11.65625 2.796875 -11.570312 2.796875 -11.40625 L 2.796875 -9.90625 C 2.796875 -9.738281 2.710938 -9.65625 2.546875 -9.65625 L 2.25 -9.65625 C 2.082031 -9.65625 2 -9.570312 2 -9.40625 L 2 -9.109375 C 2 -8.941406 1.910156 -8.859375 1.734375 -8.859375 L 0.65625 -8.859375 C 0.488281 -8.859375 0.40625 -8.941406 0.40625 -9.109375 L 0.40625 -12.1875 C 0.40625 -12.363281 0.488281 -12.453125 0.65625 -12.453125 L 10.140625 -12.453125 C 10.304688 -12.453125 10.390625 -12.363281 10.390625 -12.1875 L 10.390625 -9.109375 C 10.390625 -8.941406 10.304688 -8.859375 10.140625 -8.859375 L 9.0625 -8.859375 C 8.882812 -8.859375 8.796875 -8.941406 8.796875 -9.109375 L 8.796875 -9.40625 C 8.796875 -9.570312 8.710938 -9.65625 8.546875 -9.65625 L 8.25 -9.65625 C 8.082031 -9.65625 8 -9.738281 8 -9.90625 L 8 -11.40625 C 8 -11.570312 7.914062 -11.65625 7.75 -11.65625 L 7.453125 -11.65625 C 7.273438 -11.65625 7.1875 -11.570312 7.1875 -11.40625 L 7.1875 -0.25 C 7.1875 -0.0820312 7.101562 0 6.9375 0 L 3.859375 0 C 3.691406 0 3.609375 -0.0820312 3.609375 -0.25 Z M 3.609375 -0.25 "/></g></g></g><g fill="#d70018" fill-opacity="1"><g transform="translate(190.341547, 213.853422)"><g/></g></g><g fill="#d70018" fill-opacity="1"><g transform="translate(204.303038, 213.853422)"><g><path d="M 0.796875 -0.25 L 0.796875 -4.875 C 0.796875 -5.039062 0.878906 -5.125 1.046875 -5.125 L 1.34375 -5.125 C 1.507812 -5.125 1.59375 -5.210938 1.59375 -5.390625 L 1.59375 -5.671875 C 1.59375 -5.847656 1.675781 -5.9375 1.84375 -5.9375 L 2.140625 -5.9375 C 2.304688 -5.9375 2.390625 -6.019531 2.390625 -6.1875 L 2.390625 -6.46875 C 2.390625 -6.644531 2.472656 -6.734375 2.640625 -6.734375 L 5.328125 -6.734375 C 5.492188 -6.734375 5.578125 -6.816406 5.578125 -6.984375 L 5.578125 -7.265625 C 5.578125 -7.441406 5.664062 -7.53125 5.84375 -7.53125 L 6.125 -7.53125 C 6.289062 -7.53125 6.375 -7.613281 6.375 -7.78125 L 6.375 -10.59375 C 6.375 -10.757812 6.289062 -10.84375 6.125 -10.84375 L 5.84375 -10.84375 C 5.664062 -10.84375 5.578125 -10.929688 5.578125 -11.109375 L 5.578125 -11.390625 C 5.578125 -11.554688 5.492188 -11.640625 5.328125 -11.640625 L 4.78125 -11.640625 C 4.601562 -11.640625 4.515625 -11.554688 4.515625 -11.390625 L 4.515625 -9.90625 C 4.515625 -9.738281 4.429688 -9.65625 4.265625 -9.65625 L 3.96875 -9.65625 C 3.800781 -9.65625 3.71875 -9.570312 3.71875 -9.40625 L 3.71875 -9.109375 C 3.71875 -8.941406 3.632812 -8.859375 3.46875 -8.859375 L 1.1875 -8.859375 C 1.019531 -8.859375 0.9375 -8.941406 0.9375 -9.109375 L 0.9375 -11.390625 C 0.9375 -11.554688 1.019531 -11.640625 1.1875 -11.640625 L 1.671875 -11.640625 C 1.835938 -11.640625 1.921875 -11.726562 1.921875 -11.90625 L 1.921875 -12.1875 C 1.921875 -12.363281 2.007812 -12.453125 2.1875 -12.453125 L 8.21875 -12.453125 C 8.382812 -12.453125 8.46875 -12.363281 8.46875 -12.1875 L 8.46875 -11.90625 C 8.46875 -11.726562 8.550781 -11.640625 8.71875 -11.640625 L 9.015625 -11.640625 C 9.179688 -11.640625 9.265625 -11.554688 9.265625 -11.390625 L 9.265625 -11.109375 C 9.265625 -10.929688 9.347656 -10.84375 9.515625 -10.84375 L 9.71875 -10.84375 C 9.882812 -10.84375 9.96875 -10.757812 9.96875 -10.59375 L 9.96875 -7.78125 C 9.96875 -7.613281 9.882812 -7.53125 9.71875 -7.53125 L 9.421875 -7.53125 C 9.253906 -7.53125 9.171875 -7.441406 9.171875 -7.265625 L 9.171875 -6.984375 C 9.171875 -6.816406 9.085938 -6.734375 8.921875 -6.734375 L 8.625 -6.734375 C 8.457031 -6.734375 8.375 -6.644531 8.375 -6.46875 L 8.375 -6.1875 C 8.375 -6.019531 8.289062 -5.9375 8.125 -5.9375 L 5.4375 -5.9375 C 5.269531 -5.9375 5.1875 -5.847656 5.1875 -5.671875 L 5.1875 -5.390625 C 5.1875 -5.210938 5.101562 -5.125 4.9375 -5.125 L 4.640625 -5.125 C 4.472656 -5.125 4.390625 -5.039062 4.390625 -4.875 L 4.390625 -1.84375 C 4.390625 -1.675781 4.472656 -1.59375 4.640625 -1.59375 L 5.328125 -1.59375 C 5.492188 -1.59375 5.578125 -1.507812 5.578125 -1.34375 L 5.578125 -1.046875 C 5.578125 -0.878906 5.664062 -0.796875 5.84375 -0.796875 L 6.125 -0.796875 C 6.289062 -0.796875 6.375 -0.878906 6.375 -1.046875 L 6.375 -3.34375 C 6.375 -3.507812 6.460938 -3.59375 6.640625 -3.59375 L 9.71875 -3.59375 C 9.882812 -3.59375 9.96875 -3.507812 9.96875 -3.34375 L 9.96875 -1.046875 C 9.96875 -0.878906 9.882812 -0.796875 9.71875 -0.796875 L 9.421875 -0.796875 C 9.253906 -0.796875 9.171875 -0.710938 9.171875 -0.546875 L 9.171875 -0.25 C 9.171875 -0.0820312 9.085938 0 8.921875 0 L 1.046875 0 C 0.878906 0 0.796875 -0.0820312 0.796875 -0.25 Z M 0.796875 -0.25 "/></g></g></g><g fill="#d70018" fill-opacity="1"><g transform="translate(225.709605, 213.853422)"><g><path d="M 2.53125 -0.25 L 2.53125 -0.546875 C 2.53125 -0.710938 2.445312 -0.796875 2.28125 -0.796875 L 1.984375 -0.796875 C 1.816406 -0.796875 1.734375 -0.878906 1.734375 -1.046875 L 1.734375 -1.34375 C 1.734375 -1.507812 1.644531 -1.59375 1.46875 -1.59375 L 1.1875 -1.59375 C 1.019531 -1.59375 0.9375 -1.675781 0.9375 -1.84375 L 0.9375 -10.59375 C 0.9375 -10.757812 1.019531 -10.84375 1.1875 -10.84375 L 1.46875 -10.84375 C 1.644531 -10.84375 1.734375 -10.929688 1.734375 -11.109375 L 1.734375 -11.390625 C 1.734375 -11.554688 1.816406 -11.640625 1.984375 -11.640625 L 2.28125 -11.640625 C 2.445312 -11.640625 2.53125 -11.726562 2.53125 -11.90625 L 2.53125 -12.1875 C 2.53125 -12.363281 2.613281 -12.453125 2.78125 -12.453125 L 8.65625 -12.453125 C 8.820312 -12.453125 8.90625 -12.363281 8.90625 -12.1875 L 8.90625 -11.90625 C 8.90625 -11.726562 8.988281 -11.640625 9.15625 -11.640625 L 9.453125 -11.640625 C 9.617188 -11.640625 9.703125 -11.554688 9.703125 -11.390625 L 9.703125 -11.109375 C 9.703125 -10.929688 9.785156 -10.84375 9.953125 -10.84375 L 10.25 -10.84375 C 10.414062 -10.84375 10.5 -10.757812 10.5 -10.59375 L 10.5 -1.84375 C 10.5 -1.675781 10.414062 -1.59375 10.25 -1.59375 L 9.953125 -1.59375 C 9.785156 -1.59375 9.703125 -1.507812 9.703125 -1.34375 L 9.703125 -1.046875 C 9.703125 -0.878906 9.617188 -0.796875 9.453125 -0.796875 L 9.15625 -0.796875 C 8.988281 -0.796875 8.90625 -0.710938 8.90625 -0.546875 L 8.90625 -0.25 C 8.90625 -0.0820312 8.820312 0 8.65625 0 L 2.78125 0 C 2.613281 0 2.53125 -0.0820312 2.53125 -0.25 Z M 5.3125 -1.328125 L 5.3125 -1.03125 C 5.3125 -0.863281 5.398438 -0.78125 5.578125 -0.78125 L 5.859375 -0.78125 C 6.023438 -0.78125 6.109375 -0.863281 6.109375 -1.03125 L 6.109375 -1.328125 C 6.109375 -1.492188 6.195312 -1.578125 6.375 -1.578125 L 6.65625 -1.578125 C 6.832031 -1.578125 6.921875 -1.660156 6.921875 -1.828125 L 6.921875 -10.59375 C 6.921875 -10.757812 6.832031 -10.84375 6.65625 -10.84375 L 6.375 -10.84375 C 6.195312 -10.84375 6.109375 -10.929688 6.109375 -11.109375 L 6.109375 -11.390625 C 6.109375 -11.554688 6.023438 -11.640625 5.859375 -11.640625 L 5.578125 -11.640625 C 5.398438 -11.640625 5.3125 -11.554688 5.3125 -11.390625 L 5.3125 -11.109375 C 5.3125 -10.929688 5.226562 -10.84375 5.0625 -10.84375 L 4.78125 -10.84375 C 4.601562 -10.84375 4.515625 -10.757812 4.515625 -10.59375 L 4.515625 -1.828125 C 4.515625 -1.660156 4.601562 -1.578125 4.78125 -1.578125 L 5.0625 -1.578125 C 5.226562 -1.578125 5.3125 -1.492188 5.3125 -1.328125 Z M 5.3125 -1.328125 "/></g></g></g><g fill="#d70018" fill-opacity="1"><g transform="translate(247.78091, 213.853422)"><g><path d="M 0.796875 -0.25 L 0.796875 -4.875 C 0.796875 -5.039062 0.878906 -5.125 1.046875 -5.125 L 1.34375 -5.125 C 1.507812 -5.125 1.59375 -5.210938 1.59375 -5.390625 L 1.59375 -5.671875 C 1.59375 -5.847656 1.675781 -5.9375 1.84375 -5.9375 L 2.140625 -5.9375 C 2.304688 -5.9375 2.390625 -6.019531 2.390625 -6.1875 L 2.390625 -6.46875 C 2.390625 -6.644531 2.472656 -6.734375 2.640625 -6.734375 L 5.328125 -6.734375 C 5.492188 -6.734375 5.578125 -6.816406 5.578125 -6.984375 L 5.578125 -7.265625 C 5.578125 -7.441406 5.664062 -7.53125 5.84375 -7.53125 L 6.125 -7.53125 C 6.289062 -7.53125 6.375 -7.613281 6.375 -7.78125 L 6.375 -10.59375 C 6.375 -10.757812 6.289062 -10.84375 6.125 -10.84375 L 5.84375 -10.84375 C 5.664062 -10.84375 5.578125 -10.929688 5.578125 -11.109375 L 5.578125 -11.390625 C 5.578125 -11.554688 5.492188 -11.640625 5.328125 -11.640625 L 4.78125 -11.640625 C 4.601562 -11.640625 4.515625 -11.554688 4.515625 -11.390625 L 4.515625 -9.90625 C 4.515625 -9.738281 4.429688 -9.65625 4.265625 -9.65625 L 3.96875 -9.65625 C 3.800781 -9.65625 3.71875 -9.570312 3.71875 -9.40625 L 3.71875 -9.109375 C 3.71875 -8.941406 3.632812 -8.859375 3.46875 -8.859375 L 1.1875 -8.859375 C 1.019531 -8.859375 0.9375 -8.941406 0.9375 -9.109375 L 0.9375 -11.390625 C 0.9375 -11.554688 1.019531 -11.640625 1.1875 -11.640625 L 1.671875 -11.640625 C 1.835938 -11.640625 1.921875 -11.726562 1.921875 -11.90625 L 1.921875 -12.1875 C 1.921875 -12.363281 2.007812 -12.453125 2.1875 -12.453125 L 8.21875 -12.453125 C 8.382812 -12.453125 8.46875 -12.363281 8.46875 -12.1875 L 8.46875 -11.90625 C 8.46875 -11.726562 8.550781 -11.640625 8.71875 -11.640625 L 9.015625 -11.640625 C 9.179688 -11.640625 9.265625 -11.554688 9.265625 -11.390625 L 9.265625 -11.109375 C 9.265625 -10.929688 9.347656 -10.84375 9.515625 -10.84375 L 9.71875 -10.84375 C 9.882812 -10.84375 9.96875 -10.757812 9.96875 -10.59375 L 9.96875 -7.78125 C 9.96875 -7.613281 9.882812 -7.53125 9.71875 -7.53125 L 9.421875 -7.53125 C 9.253906 -7.53125 9.171875 -7.441406 9.171875 -7.265625 L 9.171875 -6.984375 C 9.171875 -6.816406 9.085938 -6.734375 8.921875 -6.734375 L 8.625 -6.734375 C 8.457031 -6.734375 8.375 -6.644531 8.375 -6.46875 L 8.375 -6.1875 C 8.375 -6.019531 8.289062 -5.9375 8.125 -5.9375 L 5.4375 -5.9375 C 5.269531 -5.9375 5.1875 -5.847656 5.1875 -5.671875 L 5.1875 -5.390625 C 5.1875 -5.210938 5.101562 -5.125 4.9375 -5.125 L 4.640625 -5.125 C 4.472656 -5.125 4.390625 -5.039062 4.390625 -4.875 L 4.390625 -1.84375 C 4.390625 -1.675781 4.472656 -1.59375 4.640625 -1.59375 L 5.328125 -1.59375 C 5.492188 -1.59375 5.578125 -1.507812 5.578125 -1.34375 L 5.578125 -1.046875 C 5.578125 -0.878906 5.664062 -0.796875 5.84375 -0.796875 L 6.125 -0.796875 C 6.289062 -0.796875 6.375 -0.878906 6.375 -1.046875 L 6.375 -3.34375 C 6.375 -3.507812 6.460938 -3.59375 6.640625 -3.59375 L 9.71875 -3.59375 C 9.882812 -3.59375 9.96875 -3.507812 9.96875 -3.34375 L 9.96875 -1.046875 C 9.96875 -0.878906 9.882812 -0.796875 9.71875 -0.796875 L 9.421875 -0.796875 C 9.253906 -0.796875 9.171875 -0.710938 9.171875 -0.546875 L 9.171875 -0.25 C 9.171875 -0.0820312 9.085938 0 8.921875 0 L 1.046875 0 C 0.878906 0 0.796875 -0.0820312 0.796875 -0.25 Z M 0.796875 -0.25 "/></g></g></g><g fill="#d70018" fill-opacity="1"><g transform="translate(269.187476, 213.853422)"><g><path d="M 6.25 -0.25 L 6.25 -3.8125 C 6.25 -3.976562 6.164062 -4.0625 6 -4.0625 L 5.703125 -4.0625 C 5.535156 -4.0625 5.453125 -4.148438 5.453125 -4.328125 L 5.453125 -4.609375 C 5.453125 -4.773438 5.367188 -4.859375 5.203125 -4.859375 L 2.25 -4.859375 C 2.082031 -4.859375 2 -4.945312 2 -5.125 L 2 -5.40625 C 2 -5.582031 1.910156 -5.671875 1.734375 -5.671875 L 1.453125 -5.671875 C 1.285156 -5.671875 1.203125 -5.753906 1.203125 -5.921875 L 1.203125 -6.203125 C 1.203125 -6.378906 1.113281 -6.46875 0.9375 -6.46875 L 0.65625 -6.46875 C 0.488281 -6.46875 0.40625 -6.550781 0.40625 -6.71875 L 0.40625 -12.1875 C 0.40625 -12.363281 0.488281 -12.453125 0.65625 -12.453125 L 4 -12.453125 C 4.164062 -12.453125 4.25 -12.363281 4.25 -12.1875 L 4.25 -6.71875 C 4.25 -6.550781 4.332031 -6.46875 4.5 -6.46875 L 4.796875 -6.46875 C 4.960938 -6.46875 5.046875 -6.378906 5.046875 -6.203125 L 5.046875 -5.921875 C 5.046875 -5.753906 5.132812 -5.671875 5.3125 -5.671875 L 5.859375 -5.671875 C 6.023438 -5.671875 6.109375 -5.753906 6.109375 -5.921875 L 6.109375 -12.1875 C 6.109375 -12.363281 6.195312 -12.453125 6.375 -12.453125 L 9.453125 -12.453125 C 9.617188 -12.453125 9.703125 -12.363281 9.703125 -12.1875 L 9.703125 -0.25 C 9.703125 -0.0820312 9.617188 0 9.453125 0 L 6.5 0 C 6.332031 0 6.25 -0.0820312 6.25 -0.25 Z M 6.25 -0.25 "/></g></g></g><g clip-path="url(#71187b123e)"><path fill="#d70018" d="M 20.988281 200.304688 L 23.582031 200.304688 C 24.699219 200.304688 25.585938 201.25 25.585938 202.3125 C 25.585938 203.429688 24.640625 204.316406 23.582031 204.316406 L 20.988281 204.316406 C 19.867188 204.316406 18.980469 203.371094 18.980469 202.3125 C 18.921875 201.25 19.867188 200.304688 20.988281 200.304688 Z M 76.28125 228.78125 C 75.929688 228.78125 75.632812 228.78125 75.28125 228.78125 C 75.222656 228.78125 75.164062 228.78125 75.105469 228.78125 L 50.933594 228.78125 C 49.8125 228.78125 48.929688 227.835938 48.929688 226.777344 C 48.929688 225.65625 49.871094 224.769531 50.933594 224.769531 L 61.074219 224.769531 C 62.195312 224.769531 63.078125 223.828125 63.078125 222.765625 C 63.078125 221.648438 62.195312 220.761719 61.074219 220.761719 L 40.324219 220.761719 C 39.203125 220.761719 38.316406 219.820312 38.316406 218.757812 C 38.316406 217.636719 39.261719 216.753906 40.324219 216.753906 L 45.214844 216.753906 C 46.335938 216.753906 47.21875 215.808594 47.21875 214.75 C 47.21875 213.628906 46.277344 212.746094 45.214844 212.746094 L 33.484375 212.746094 C 32.363281 212.746094 31.480469 211.800781 31.480469 210.742188 C 31.480469 209.621094 32.421875 208.734375 33.484375 208.734375 L 38.96875 208.734375 C 40.085938 208.734375 40.972656 207.792969 40.972656 206.730469 C 40.972656 205.613281 40.027344 204.726562 38.96875 204.726562 L 30.476562 204.726562 C 29.359375 204.726562 28.472656 203.785156 28.472656 202.722656 C 28.472656 201.601562 29.417969 200.71875 30.476562 200.71875 L 46.277344 200.71875 C 47.398438 200.71875 48.28125 199.777344 48.28125 198.714844 C 48.28125 197.59375 47.335938 196.710938 46.277344 196.710938 L 25.820312 196.710938 C 24.699219 196.710938 23.816406 195.765625 23.816406 194.707031 C 23.816406 193.585938 24.757812 192.703125 25.820312 192.703125 L 32.777344 192.703125 C 33.898438 192.703125 34.78125 191.757812 34.78125 190.695312 C 34.78125 189.578125 33.898438 188.691406 32.777344 188.691406 L 25.40625 188.691406 C 24.289062 188.691406 23.402344 187.75 23.402344 186.6875 C 23.402344 185.570312 24.347656 184.683594 25.40625 184.683594 L 32.953125 184.683594 C 34.074219 184.683594 34.957031 183.742188 34.957031 182.679688 C 34.957031 181.558594 34.015625 180.675781 32.953125 180.675781 L 29.296875 180.675781 C 28.179688 180.675781 27.292969 179.730469 27.292969 178.671875 C 27.292969 177.550781 28.238281 176.667969 29.296875 176.667969 L 41.148438 176.667969 C 42.269531 176.667969 43.152344 175.722656 43.152344 174.664062 C 43.152344 173.542969 42.210938 172.65625 41.148438 172.65625 L 25.171875 172.65625 C 24.050781 172.65625 23.167969 171.714844 23.167969 170.652344 C 23.167969 169.535156 24.109375 168.648438 25.171875 168.648438 L 38.378906 168.648438 C 39.496094 168.648438 40.382812 167.707031 40.382812 166.644531 C 40.382812 165.644531 39.675781 164.816406 38.671875 164.640625 L 37.789062 164.640625 C 36.667969 164.640625 35.785156 163.699219 35.785156 162.636719 C 35.785156 161.515625 36.726562 160.632812 37.789062 160.632812 L 47.335938 160.632812 C 48.222656 160.394531 48.871094 159.628906 48.871094 158.6875 C 48.871094 157.683594 48.164062 156.859375 47.160156 156.683594 L 39.792969 156.683594 C 38.671875 156.683594 37.789062 155.738281 37.789062 154.679688 C 37.789062 153.558594 38.730469 152.671875 39.792969 152.671875 L 53.824219 152.671875 C 54.941406 152.671875 55.828125 151.730469 55.828125 150.667969 C 55.828125 149.726562 55.179688 148.960938 54.292969 148.722656 L 54.351562 148.664062 L 45.863281 148.664062 C 44.742188 148.664062 43.859375 147.722656 43.859375 146.660156 C 43.859375 145.539062 44.804688 144.65625 45.863281 144.65625 L 64.847656 144.65625 C 68.441406 143.773438 72.273438 143.300781 76.164062 143.300781 C 87.957031 143.300781 97.152344 145.777344 106.054688 152.378906 C 106.878906 152.96875 107.351562 153.851562 107.46875 154.855469 C 107.585938 155.855469 107.292969 156.800781 106.644531 157.625 L 99.6875 165.996094 C 98.449219 167.46875 96.265625 167.765625 94.734375 166.585938 C 89.015625 162.339844 83.238281 160.21875 75.574219 160.21875 C 61.957031 160.21875 51.582031 172.363281 51.582031 186.335938 C 51.582031 201.542969 61.605469 213.15625 76.929688 213.15625 C 82.945312 213.15625 88.132812 211.859375 92.496094 209.265625 C 93.613281 208.617188 94.261719 207.4375 94.261719 206.140625 L 94.261719 198.714844 C 94.261719 196.710938 92.613281 195.058594 90.609375 195.058594 L 79.347656 195.058594 C 77.34375 195.058594 75.695312 193.410156 75.695312 191.40625 L 75.695312 182.796875 C 75.695312 180.792969 77.34375 179.144531 79.347656 179.144531 L 108.410156 179.144531 C 110.414062 179.144531 112.066406 180.792969 112.066406 182.796875 L 112.066406 213.746094 C 112.066406 214.867188 111.59375 215.871094 110.710938 216.578125 C 106.703125 219.761719 102.042969 222.53125 96.738281 224.828125 C 90.726562 227.484375 83.945312 228.78125 76.28125 228.78125 Z M 29.886719 224.710938 L 45.453125 224.710938 C 46.570312 224.710938 47.457031 225.65625 47.457031 226.714844 C 47.457031 227.835938 46.511719 228.722656 45.453125 228.722656 L 29.886719 228.722656 C 28.769531 228.722656 27.882812 227.777344 27.882812 226.714844 C 27.824219 225.597656 28.769531 224.710938 29.886719 224.710938 Z M 8.136719 208.441406 L 12.4375 208.441406 C 13.558594 208.441406 14.441406 209.386719 14.441406 210.445312 C 14.441406 211.566406 13.5 212.449219 12.4375 212.449219 L 8.136719 212.449219 C 7.015625 212.449219 6.132812 211.507812 6.132812 210.445312 C 6.132812 209.324219 7.015625 208.441406 8.136719 208.441406 Z M 19.570312 208.441406 L 27.589844 208.441406 C 28.710938 208.441406 29.59375 209.386719 29.59375 210.445312 C 29.59375 211.566406 28.648438 212.449219 27.589844 212.449219 L 19.570312 212.449219 C 18.453125 212.449219 17.566406 211.507812 17.566406 210.445312 C 17.566406 209.324219 18.453125 208.441406 19.570312 208.441406 Z M 14.382812 175.960938 L 22.226562 175.960938 C 23.34375 175.960938 24.230469 176.902344 24.230469 177.964844 C 24.230469 179.082031 23.285156 179.96875 22.226562 179.96875 L 14.382812 179.96875 C 13.265625 179.96875 12.378906 179.023438 12.378906 177.964844 C 12.378906 176.84375 13.265625 175.960938 14.382812 175.960938 Z M 2.003906 184.035156 L 19.75 184.035156 C 20.867188 184.035156 21.753906 184.980469 21.753906 186.039062 C 21.753906 187.160156 20.867188 188.042969 19.75 188.042969 L 2.003906 188.042969 C 0.882812 188.042969 0 187.101562 0 186.039062 C 0 184.980469 0.941406 184.035156 2.003906 184.035156 Z M 26.351562 151.671875 L 34.015625 151.671875 C 35.136719 151.671875 36.019531 152.613281 36.019531 153.675781 C 36.019531 154.796875 35.074219 155.679688 34.015625 155.679688 L 26.351562 155.679688 C 25.230469 155.679688 24.347656 154.738281 24.347656 153.675781 C 24.347656 152.613281 25.230469 151.671875 26.351562 151.671875 Z M 37.789062 143.59375 L 40.792969 143.59375 C 41.914062 143.59375 42.796875 144.539062 42.796875 145.597656 C 42.796875 146.71875 41.855469 147.605469 40.792969 147.605469 L 37.789062 147.605469 C 36.667969 147.605469 35.785156 146.660156 35.785156 145.597656 C 35.785156 144.480469 36.667969 143.59375 37.789062 143.59375 Z M 21.929688 159.6875 L 31.421875 159.6875 C 32.542969 159.6875 33.425781 160.632812 33.425781 161.691406 C 33.425781 162.8125 32.480469 163.699219 31.421875 163.699219 L 21.929688 163.699219 C 20.808594 163.699219 19.925781 162.753906 19.925781 161.691406 C 19.867188 160.632812 20.808594 159.6875 21.929688 159.6875 Z M 21.929688 159.6875 " fill-opacity="1" fill-rule="evenodd"/></g></svg>