<svg xmlns="http://www.w3.org/2000/svg" xmlns:xlink="http://www.w3.org/1999/xlink" width="500" zoomAndPan="magnify" viewBox="0 0 375 374.999991" height="500" preserveAspectRatio="xMidYMid meet" version="1.0"><defs><g/><clipPath id="ee4b3c2c1e"><path d="M 63.210938 6.960938 L 311.460938 6.960938 L 311.460938 287.460938 L 63.210938 287.460938 Z M 63.210938 6.960938 " clip-rule="nonzero"/></clipPath></defs><g clip-path="url(#ee4b3c2c1e)"><path fill="#ffffff" d="M 170.277344 269.277344 C 170.265625 269.527344 170.203125 269.765625 170.203125 270.023438 C 170.203125 279.582031 177.984375 287.359375 187.546875 287.359375 C 197.113281 287.359375 204.886719 279.578125 204.886719 270.023438 C 204.886719 267.121094 204.105469 264.429688 202.839844 262.023438 L 279.375 217.859375 C 282.457031 222.703125 287.839844 225.945312 293.992188 225.945312 C 303.550781 225.945312 311.328125 218.164062 311.328125 208.605469 C 311.328125 201.933594 307.503906 196.203125 301.972656 193.304688 L 301.972656 101.015625 C 307.503906 98.117188 311.328125 92.382812 311.328125 85.714844 C 311.328125 76.15625 303.550781 68.375 293.992188 68.375 C 287.820312 68.375 282.429688 71.640625 279.355469 76.503906 L 202.816406 32.339844 C 204.09375 29.925781 204.886719 27.214844 204.886719 24.296875 C 204.886719 14.738281 197.105469 6.960938 187.546875 6.960938 C 177.988281 6.960938 170.203125 14.734375 170.203125 24.296875 C 170.203125 24.554688 170.265625 24.792969 170.277344 25.050781 L 90.40625 71.132812 C 87.714844 69.410156 84.53125 68.375 81.105469 68.375 C 71.542969 68.375 63.761719 76.152344 63.761719 85.714844 C 63.761719 92.382812 67.585938 98.117188 73.121094 101.015625 L 73.121094 193.304688 C 67.585938 196.203125 63.761719 201.933594 63.761719 208.605469 C 63.761719 218.164062 71.542969 225.945312 81.105469 225.945312 C 84.53125 225.945312 87.710938 224.910156 90.402344 223.1875 Z M 178.246094 38.882812 C 180.757812 40.488281 183.710938 41.445312 186.882812 41.570312 L 186.882812 84.582031 L 142.980469 59.234375 L 178.25 38.882812 Z M 143.023438 235.113281 L 186.882812 209.789062 L 186.882812 252.746094 C 183.710938 252.867188 180.757812 253.828125 178.246094 255.433594 Z M 134.992188 230.484375 L 134.992188 179.070312 L 186.21875 208.648438 L 141.691406 234.351562 L 134.992188 230.488281 Z M 89.089844 143.347656 L 133.660156 117.617188 L 133.660156 176.765625 L 89.089844 151.035156 Z M 172.289062 155.226562 L 134.992188 176.765625 L 134.992188 117.605469 L 172.269531 139.132812 C 170.996094 141.546875 170.203125 144.25 170.203125 147.160156 C 170.203125 150.085938 171 152.808594 172.289062 155.226562 Z M 172.925781 156.398438 C 175.890625 161.070312 181.007812 164.203125 186.882812 164.429688 L 186.882812 207.488281 L 135.667969 177.917969 L 172.933594 156.398438 Z M 204.808594 146.414062 L 240.097656 126.042969 L 240.097656 176.773438 L 202.796875 155.226562 C 204.082031 152.808594 204.882812 150.085938 204.882812 147.160156 C 204.882812 146.90625 204.816406 146.664062 204.808594 146.414062 Z M 172.902344 137.964844 L 135.664062 116.457031 L 186.878906 86.886719 L 186.878906 129.890625 C 180.984375 130.117188 175.859375 133.269531 172.902344 137.964844 Z M 98.371094 84.972656 L 133.660156 64.609375 L 133.660156 115.296875 L 96.367188 93.761719 C 97.652344 91.347656 98.445312 88.632812 98.445312 85.714844 C 98.445312 85.460938 98.378906 85.226562 98.371094 84.972656 Z M 95.730469 94.933594 L 132.996094 116.457031 L 89.082031 141.8125 L 89.082031 101.015625 C 91.796875 99.597656 94.097656 97.515625 95.730469 94.933594 Z M 133 177.917969 L 95.757812 199.421875 C 94.121094 196.828125 91.820312 194.730469 89.089844 193.296875 L 89.089844 152.5625 Z M 96.390625 200.597656 L 133.65625 179.078125 L 133.65625 229.71875 L 98.363281 209.355469 C 98.375 209.097656 98.4375 208.863281 98.4375 208.609375 C 98.4375 205.707031 97.652344 203.011719 96.390625 200.605469 Z M 188.210938 164.429688 C 194.089844 164.203125 199.203125 161.066406 202.167969 156.398438 L 239.433594 177.921875 L 188.21875 207.492188 L 188.21875 164.4375 Z M 241.433594 125.269531 L 248.066406 121.445312 L 286.007812 143.347656 L 286.007812 151.027344 L 241.433594 176.761719 Z M 284.691406 100.304688 C 285.113281 100.570312 285.566406 100.789062 286.007812 101.015625 L 286.007812 141.8125 L 249.402344 120.675781 Z M 196.84375 132.578125 C 194.328125 130.96875 191.378906 130.011719 188.207031 129.890625 L 188.207031 86.886719 L 232.097656 112.226562 Z M 186.210938 85.730469 L 134.984375 115.308594 L 134.984375 63.84375 L 141.640625 60.003906 L 186.207031 85.738281 Z M 240.105469 179.066406 L 240.105469 238.214844 L 188.878906 208.640625 Z M 286.007812 152.566406 L 286.007812 193.304688 C 283.277344 194.734375 280.972656 196.828125 279.339844 199.421875 L 242.09375 177.917969 L 286.007812 152.5625 Z M 233.429688 111.460938 L 188.871094 85.738281 L 240.097656 56.164062 L 240.097656 107.609375 Z M 188.210938 252.75 L 188.210938 209.796875 L 239.433594 239.367188 L 202.199219 260.851562 C 199.242188 256.140625 194.109375 252.980469 188.207031 252.75 Z M 241.433594 238.210938 L 241.433594 179.070312 L 278.699219 200.59375 C 277.433594 203 276.644531 205.699219 276.644531 208.597656 C 276.644531 211.53125 277.449219 214.257812 278.738281 216.683594 L 241.429688 238.210938 Z M 276.71875 86.464844 L 241.429688 106.839844 L 241.429688 56.164062 L 278.710938 77.675781 C 277.433594 80.089844 276.640625 82.800781 276.640625 85.714844 C 276.640625 85.972656 276.703125 86.214844 276.714844 86.464844 Z M 239.433594 55.007812 L 188.210938 84.582031 L 188.210938 41.570312 C 194.097656 41.339844 199.21875 38.195312 202.179688 33.511719 Z M 239.433594 55.007812 " fill-opacity="1" fill-rule="nonzero"/></g><g fill="#ffffff" fill-opacity="1"><g transform="translate(103.781516, 337.359645)"><g><path d="M 15.578125 0.21875 C 13.628906 0.21875 11.789062 -0.175781 10.0625 -0.96875 C 8.332031 -1.757812 6.8125 -2.847656 5.5 -4.234375 C 4.195312 -5.628906 3.175781 -7.253906 2.4375 -9.109375 C 1.707031 -10.972656 1.34375 -12.988281 1.34375 -15.15625 C 1.34375 -17.207031 1.707031 -19.140625 2.4375 -20.953125 C 3.175781 -22.765625 4.207031 -24.359375 5.53125 -25.734375 C 6.851562 -27.117188 8.398438 -28.203125 10.171875 -28.984375 C 11.941406 -29.773438 13.867188 -30.171875 15.953125 -30.171875 C 18.765625 -30.171875 21.175781 -29.570312 23.1875 -28.375 C 25.195312 -27.1875 26.710938 -25.609375 27.734375 -23.640625 L 23.375 -20.421875 C 22.613281 -21.910156 21.550781 -23.050781 20.1875 -23.84375 C 18.820312 -24.632812 17.335938 -25.03125 15.734375 -25.03125 C 14.472656 -25.03125 13.320312 -24.757812 12.28125 -24.21875 C 11.238281 -23.6875 10.335938 -22.957031 9.578125 -22.03125 C 8.816406 -21.101562 8.234375 -20.035156 7.828125 -18.828125 C 7.421875 -17.617188 7.21875 -16.335938 7.21875 -14.984375 C 7.21875 -13.546875 7.4375 -12.222656 7.875 -11.015625 C 8.3125 -9.804688 8.929688 -8.75 9.734375 -7.84375 C 10.535156 -6.945312 11.46875 -6.238281 12.53125 -5.71875 C 13.601562 -5.195312 14.785156 -4.9375 16.078125 -4.9375 C 17.597656 -4.9375 19.050781 -5.328125 20.4375 -6.109375 C 21.832031 -6.898438 23.132812 -8.054688 24.34375 -9.578125 L 24.34375 -3.84375 C 21.84375 -1.132812 18.921875 0.21875 15.578125 0.21875 Z M 23.921875 -11.140625 L 17.890625 -11.140625 L 17.890625 -15.40625 L 28.734375 -15.40625 L 28.734375 0 L 23.921875 0 Z M 23.921875 -11.140625 "/></g></g></g><g fill="#ffffff" fill-opacity="1"><g transform="translate(141.84775, 337.359645)"><g><path d="M 3.125 0 L 3.125 -29.96875 L 8.953125 -29.96875 L 8.953125 0 Z M 3.125 0 "/></g></g></g><g fill="#ffffff" fill-opacity="1"><g transform="translate(161.388541, 337.359645)"><g><path d="M 1.265625 -4.390625 L 17.984375 -24.859375 L 1.734375 -24.859375 L 1.734375 -29.96875 L 24.90625 -29.96875 L 24.90625 -25.578125 L 8.734375 -5.109375 L 25.03125 -5.109375 L 25.03125 0 L 1.265625 0 Z M 1.265625 -4.390625 "/></g></g></g><g fill="#ffffff" fill-opacity="1"><g transform="translate(195.319258, 337.359645)"><g><path d="M 27.5625 0 L 27.5625 -19.671875 L 19.875 -5.015625 L 16.625 -5.015625 L 8.953125 -19.671875 L 8.953125 0 L 3.125 0 L 3.125 -29.96875 L 9.375 -29.96875 L 18.234375 -12.921875 L 27.171875 -29.96875 L 33.375 -29.96875 L 33.375 0 Z M 27.5625 0 "/></g></g></g><g fill="#ffffff" fill-opacity="1"><g transform="translate(239.293378, 337.359645)"><g><path d="M 15.90625 0.21875 C 13.71875 0.21875 11.726562 -0.203125 9.9375 -1.046875 C 8.15625 -1.898438 6.625 -3.050781 5.34375 -4.5 C 4.0625 -5.945312 3.066406 -7.578125 2.359375 -9.390625 C 1.660156 -11.203125 1.3125 -13.066406 1.3125 -14.984375 C 1.3125 -16.984375 1.679688 -18.890625 2.421875 -20.703125 C 3.171875 -22.515625 4.195312 -24.128906 5.5 -25.546875 C 6.8125 -26.972656 8.359375 -28.097656 10.140625 -28.921875 C 11.929688 -29.753906 13.894531 -30.171875 16.03125 -30.171875 C 18.195312 -30.171875 20.171875 -29.734375 21.953125 -28.859375 C 23.742188 -27.992188 25.269531 -26.828125 26.53125 -25.359375 C 27.800781 -23.898438 28.789062 -22.269531 29.5 -20.46875 C 30.207031 -18.664062 30.5625 -16.804688 30.5625 -14.890625 C 30.5625 -12.921875 30.191406 -11.03125 29.453125 -9.21875 C 28.722656 -7.40625 27.703125 -5.785156 26.390625 -4.359375 C 25.085938 -2.941406 23.539062 -1.820312 21.75 -1 C 19.96875 -0.1875 18.019531 0.21875 15.90625 0.21875 Z M 7.21875 -14.984375 C 7.21875 -13.691406 7.410156 -12.4375 7.796875 -11.21875 C 8.191406 -10.007812 8.765625 -8.929688 9.515625 -7.984375 C 10.265625 -7.046875 11.179688 -6.300781 12.265625 -5.75 C 13.347656 -5.207031 14.578125 -4.9375 15.953125 -4.9375 C 17.359375 -4.9375 18.609375 -5.222656 19.703125 -5.796875 C 20.804688 -6.378906 21.722656 -7.15625 22.453125 -8.125 C 23.179688 -9.09375 23.734375 -10.175781 24.109375 -11.375 C 24.492188 -12.570312 24.6875 -13.773438 24.6875 -14.984375 C 24.6875 -16.273438 24.484375 -17.519531 24.078125 -18.71875 C 23.671875 -19.914062 23.09375 -20.984375 22.34375 -21.921875 C 21.601562 -22.867188 20.691406 -23.613281 19.609375 -24.15625 C 18.523438 -24.707031 17.304688 -24.984375 15.953125 -24.984375 C 14.515625 -24.984375 13.253906 -24.691406 12.171875 -24.109375 C 11.085938 -23.535156 10.179688 -22.769531 9.453125 -21.8125 C 8.722656 -20.863281 8.164062 -19.796875 7.78125 -18.609375 C 7.40625 -17.429688 7.21875 -16.222656 7.21875 -14.984375 Z M 7.21875 -14.984375 "/></g></g></g></svg>