<?xml version="1.0" standalone="no"?>
<!DOCTYPE svg PUBLIC "-//W3C//DTD SVG 20010904//EN"
 "http://www.w3.org/TR/2001/REC-SVG-20010904/DTD/svg10.dtd">
<svg version="1.0" xmlns="http://www.w3.org/2000/svg"
 width="800.000000pt" height="600.000000pt" viewBox="0 0 800.000000 600.000000"
 preserveAspectRatio="xMidYMid meet">

<g transform="translate(0.000000,600.000000) scale(0.100000,-0.100000)"
fill="#000000" stroke="none">
<path d="M0 3000 l0 -3000 4000 0 4000 0 0 3000 0 3000 -4000 0 -4000 0 0
-3000z m4196 1348 c101 -57 184 -105 184 -108 0 -3 -286 -167 -635 -365 l-634
-360 -1 -507 c0 -280 2 -508 5 -508 3 0 86 45 185 101 l181 101 260 -152 259
-151 254 148 255 148 3 84 3 83 189 109 c104 60 191 109 193 109 2 0 3 -135 3
-299 l0 -300 -450 -257 -450 -257 0 -208 c0 -115 -1 -209 -3 -209 -2 0 -289
162 -638 359 l-634 360 -3 729 -2 729 632 361 c348 199 639 361 646 362 7 0
96 -46 198 -102z m879 -503 c94 -53 179 -101 188 -108 14 -10 -77 -65 -623
-376 l-640 -364 0 -213 c0 -118 -2 -214 -5 -214 -3 0 -89 48 -190 106 l-185
106 0 218 0 218 633 360 c347 199 636 361 641 362 5 0 86 -43 181 -95z"/>
</g>
</svg>
